<svg id="Layer_1" data-name="Layer 1" xmlns="http://www.w3.org/2000/svg" viewBox="0 0 250 259.5"><defs><style>.cls-1{fill:#59677a;}.cls-2{fill:#2f4159;}</style></defs><title>spy</title><polygon class="cls-1" points="84.19 126.51 84.19 145.72 124.86 146.26 167.19 144.27 167.19 128.26 84.19 126.51"/><path class="cls-2" d="M124.87,99.39C106,92.91,87.35,86.56,68.73,80c-4.34-1.53-3.06-5.11-2.25-8.35,2-8.22,5.3-16.37,5.83-24.69C74.08,19,88.48,4.92,116,.55c19.26-3,34.22,7.28,51.08,11.62,1.66.43,2.69,4.66,3.37,7.29q6.54,25.3,12.73,50.69c.84,3.46,2.93,8.11-2,9.86C162.68,86.69,143.93,92.88,124.87,99.39Z"/><path class="cls-2" d="M7.25,97.48c27.43-11.81,52.39-12.91,77-.11,26.84,14,53.49,14.43,80.52.42,24.93-12.93,50.43-12.5,76-1.15-2.94,5.25-9.35,6.59-14.45,9.46-18.08,10.15-36,20.7-54.78,29.45-33.22,15.5-66.26,15.14-98.8-3.41C51.91,120.29,30.38,109.67,7.25,97.48Z"/><path class="cls-2" d="M175.58,156.24c-.81,22.28-10,36.67-26.29,48.82-25,18.65-23.68,18.69-48.16.31C85,193.23,75.32,178.85,74.34,156.83,107.72,168.32,141.18,169.45,175.58,156.24Z"/><polygon class="cls-1" points="49.72 126.51 17.06 123.75 48.17 181.65 103.86 249.88 92.16 205.1 62.47 177.74 49.72 126.51"/><polygon class="cls-1" points="200.43 123.02 233.09 120.25 201.98 178.15 146.3 246.39 158 201.61 187.68 174.25 200.43 123.02"/><path class="cls-2" d="M231.33,114.32c2.32,1,4.93,1.95,7.34,3.25,14.35,7.77,14.54,8.76,3.61,20.9-9.76,10.85-19.36,21.85-29.55,32.28-6.89,7.05-8.5,11.57,3.12,14.54,6.66,1.7,13,4.76,22.2,8.25l-99.5,66C169.72,211.15,211.37,170.14,231.33,114.32Z"/><path class="cls-2" d="M111.4,259.27,11.51,193.41,46,180.69C32.28,165.64,19.3,151.6,6.61,137.3c-2.88-3.25-8.74-6.16-5.82-11.57,3.24-6,10-8.23,16-10.87,2.35-1,3,1.24,3.64,3,17,48.21,51.76,84.73,81.76,124.38,3.67,4.85,7.45,9.62,11.19,14.42Z"/></svg>